<?xml version="1.0" encoding="utf-8"?>
<!-- Generator: Adobe Illustrator 19.0.0, SVG Export Plug-In . SVG Version: 6.00 Build 0)  -->
<svg version="1.1" id="Capa_1" xmlns="http://www.w3.org/2000/svg" xmlns:xlink="http://www.w3.org/1999/xlink" x="0px" y="0px"
	 viewBox="0 0 300 86.1" style="enable-background:new 0 0 300 86.1;" xml:space="preserve">
<style type="text/css">
	.st0{fill:#FFFFFF;}
</style>
<g id="XMLID_1_">
	<path id="XMLID_66_" class="st0" d="M40.1,62.4c0.2-0.4,0.1-0.8,0.1-1.1c0-13.8,0-27.5,0-41.3c0-1.3-0.1-1.1,1-1.1
		c72,0,144.1,0,216.1,0c1.2,0,1.3,0,1,1.2c-0.3,1.1-0.9,2.1-1.7,2.9c-1.4,1.4-3.2,2.4-5,3.1c-2.6,1-5.3,1.6-8.2,1.6
		c-63.7,0-127.3,0-191,0c-1.3,0-1.1-0.2-1.1,1.1c0,17.7,0,35.3,0,53c0,1,0,1.1-1,1.3c-2,0.4-3.9,0.5-5.9,0.5c-1,0-2.1-0.1-3.1-0.3
		c-2.8-0.5-5-1.8-6.8-3.9c-1.3-1.6-2.4-3.4-3.4-5.2c-6.3-11.3-12.7-22.6-19-34c-0.2-0.4-0.4-0.7-0.6-1.1c-0.1,0-0.1,0-0.2,0.1
		c0,0.3,0,0.6,0,0.9c0,13.8,0,27.7,0,41.5c0,1.2,0.2,1-1.1,1c-3.1,0-6.1,0-9.2,0c-1,0-0.9,0.1-0.9-0.9c0-12.5,0-24.9,0-37.4
		c0-8.1,0-16.1,0-24.2c0-0.3,0-0.7,0-1c0-0.3,0.1-0.5,0.4-0.6c0.7-0.2,1.4-0.4,2.2-0.5c2.6-0.3,5.2-0.4,7.8,0.1
		c2.5,0.5,4.5,1.7,6.2,3.6c1.4,1.5,2.4,3.3,3.5,5.1c3.3,5.9,6.6,11.7,9.9,17.6c3.2,5.7,6.4,11.4,9.6,17.1
		C39.8,61.9,39.9,62.1,40.1,62.4z"/>
	<path id="XMLID_11_" class="st0" d="M221.1,83.7c-0.4-1.8-0.8-3.9-1.3-5.7c-2.4-9.9-5.2-19.9-8.8-29.5c-1.4-3.8-3-6.9-4.8-10.6
		c-0.2-0.4-0.3,0.2-0.8,0.2H192c-0.4,0-0.6-0.7-0.8-0.3c-0.5,1-1,1.6-1.5,2.6c-2.9,6-5.1,12.1-7,18.5c-2.1,7.1-3.8,14.2-5.4,21.4
		c-0.3,1.2-0.5,2.3-0.7,3.5c0.1,0,0.2,0,0.3,0c3.5,0,7,0,10.5,0c0.4,0,0.5-0.2,0.6-0.6c0.4-2.6,0.8-5.2,1.4-7.7
		c0.1-0.6,0.1-0.6,0.8-0.6c5,0,10.1,0,15.1,0c0.4,0,0.7,0.1,0.7,0.6c0,0.2,0.1,0.3,0.1,0.5c0.5,2.4,1,4.9,1.4,7.3
		c0.1,0.4,0.3,1.3,0.7,1.2c0.1,0,0.2,0.7,0.3,0.7h12.9C221.1,85.1,221.1,83.9,221.1,83.7z M191.2,69.1c0-2,4.1-15.5,6-19.6
		c0.3,0.1,0.3-0.2,0.4,0c1.7,3.5,3,6.8,4.1,10.4c0.7,2.2,1.3,5.4,1.9,7.6c0.1,0.2,0.1,1.6,0.1,1.6H191.2z"/>
	<path id="XMLID_64_" class="st0" d="M296.5,75.4c0,1.5,0,2.9,0,4.2c0,1.2,0,2.4,0,3.6c0,0.6-0.2,0.9-0.7,1.1
		c-1.3,0.5-2.7,1-4.1,1.2c-5.9,1-11.7,0.9-17.5-0.6c-1.8-0.4-3.4-1.2-5-2.2c-1.7-1.1-2.9-2.6-3.7-4.5c-0.9-2.2-1.4-4.5-1.6-6.9
		c-0.3-2.5-0.3-5-0.3-7.5c0-8.7,0-17.5,0-26.2c0-0.1,0-0.3,0-0.4c0-0.8-0.1-0.7,0.7-0.7c10.4,0,20.9,0,31.3,0c0.1,0,0.3,0,0.4,0
		c0.2,0,0.4,0.1,0.3,0.3c0,0.1,0,0.3,0,0.4c0,2.6,0,5.1,0,7.7c0,0.7,0,0.7-0.7,0.7c-6.3,0-12.5,0-18.8,0c-1,0-1,0-1,1
		c0,2.8,0,5.7,0,8.5c0,0.8-0.1,0.7,0.8,0.7c5.3,0,10.6,0,15.8,0c0.2,0,0.4,0,0.6,0c0.4,0,0.5,0.1,0.5,0.5c0,2.7,0,5.5,0,8.2
		c0,0.5-0.3,0.5-0.6,0.5c-3,0-6.1,0-9.1,0c-2.4,0-4.9,0-7.3,0c-0.7,0-0.7,0-0.7,0.7c0,2.1,0,4.2,0.5,6.3c0.5,2.4,2,3.9,4.5,4.4
		c2.3,0.5,4.6,0.5,6.8,0.4c2.9-0.1,5.7-0.6,8.4-1.4C296.2,75.4,296.3,75.4,296.5,75.4z"/>
	<path id="XMLID_63_" class="st0" d="M91.7,75.4c0.2,0.3,0.1,0.5,0.1,0.7c0,2.4,0,4.8,0,7.2c0,0.5-0.2,0.7-0.6,0.9
		c-1.7,0.7-3.6,1.2-5.4,1.5c-5,0.7-10,0.6-15-0.5c-2.3-0.5-4.4-1.3-6.3-2.6c-1.9-1.2-3.1-2.9-3.9-5c-0.9-2.4-1.3-4.8-1.5-7.3
		c-0.2-2-0.2-4.1-0.2-6.1c0-9,0-17.9,0-26.9c0-1-0.1-0.9,0.9-0.9c10.4,0,20.7,0,31.1,0c0.9,0,0.8-0.1,0.8,0.8c0,2.5,0,5.1,0,7.6
		c0,0.9,0.1,0.8-0.8,0.8c-6.2,0-12.4,0-18.6,0c-1.3,0-1.1-0.1-1.1,1.1c0,2.8,0,5.6,0,8.5c0,0.7,0,0.7,0.7,0.7c5.4,0,10.7,0,16.1,0
		c1,0,0.9-0.1,0.9,0.9c0,2.5,0,5.1,0,7.6c0,0.8,0,0.7-0.7,0.7c-5.4,0-10.7,0-16.1,0C71,65.2,71,65,71,66c0,1.9,0,3.8,0.4,5.7
		c0.2,0.8,0.4,1.5,0.8,2.2c0.7,1.3,1.8,2,3.2,2.4c1.4,0.4,2.9,0.5,4.3,0.6c3.9,0.1,7.7-0.3,11.4-1.4C91.3,75.5,91.5,75.5,91.7,75.4z
		"/>
	<path id="XMLID_62_" class="st0" d="M131,45.3c-0.3,0.1-0.6-0.1-0.9-0.2c-4.3-1.3-8.6-2-13.1-1.9c-1.2,0-2.3,0.1-3.5,0.3
		c-2.3,0.4-3.1,1.3-3.3,3.6c0,0.5,0,1,0.1,1.5c0.1,0.9,0.6,1.6,1.4,2c1.6,0.9,3.4,1.5,5.1,2.1c2.8,1,5.5,1.9,8.2,3
		c1.4,0.6,2.7,1.2,4,2c2.4,1.5,3.8,3.8,4.5,6.5c0.9,3.9,0.7,7.8-0.8,11.6c-0.9,2.3-2.5,4.1-4.7,5.2c-2.1,1-4.4,1.7-6.7,2.1
		c-5.8,0.9-11.6,0.7-17.3-0.6c-1.2-0.3-2.3-0.7-3.4-1.2c-0.3-0.1-0.5-0.3-0.5-0.7c0-2.7,0-5.3,0-8c0-0.1,0-0.1,0.1-0.2
		c0.9,0.2,1.9,0.5,2.8,0.7c4.1,1,8.2,1.6,12.4,1.6c1.3,0,2.5-0.1,3.8-0.5c1.9-0.5,2.5-1.3,2.7-3.2c0-0.4,0-0.8,0-1.2
		c0-1.3-0.5-2.3-1.8-2.9c-1.9-0.9-4-1.6-6-2.3c-2.5-0.8-5-1.6-7.4-2.7c-1.5-0.6-2.9-1.4-4.2-2.4c-1.8-1.4-2.7-3.3-3.2-5.4
		c-0.9-4-0.7-7.9,0.5-11.8c0.7-2.3,2.1-4,4.1-5.3c2.1-1.4,4.4-2.2,6.8-2.6c5.8-0.8,11.5-0.6,17.2,0.9c0.9,0.3,1.8,0.6,2.7,1
		c0.3,0.1,0.5,0.3,0.5,0.7c0,2.6,0,5.2,0,7.9C131.1,45.2,131.1,45.2,131,45.3z"/>
	<path id="XMLID_61_" class="st0" d="M242.4,36.5c5.2,0,10.4,0,15.7,0c0.1,0,0.2,0,0.2,0c0.6,0,0.6,0,0.6,0.6c0,2.4,0,4.8,0,7.2
		c0,0.3,0,0.6,0,0.9c0,0.4-0.1,0.5-0.5,0.5c-0.2,0-0.4,0-0.7,0c-6.2,0-12.4,0-18.6,0c-0.1,0-0.2,0-0.2,0c-0.6,0-0.6,0-0.6,0.7
		c0,3,0,5.9,0,8.9c0,0.8-0.1,0.8,0.8,0.8c5.7,0,11.4,0,17.1,0c0.2,0,0.4,0,0.6,0c0.4,0,0.5,0.1,0.5,0.5c0,2.7,0,5.5,0,8.2
		c0,0.4-0.1,0.5-0.5,0.5c-1.5,0-3,0-4.6,0c-4.3,0-8.6,0-12.8,0c-0.2,0-0.4,0-0.6,0c-0.3,0-0.4,0.1-0.4,0.4c0,0.2,0,0.4,0,0.6
		c0,6.4,0,12.8,0,19.1c0,0.9,0.1,0.8-0.8,0.8c-2.1,0-4.1-0.1-6.2-0.7c-0.2-0.1-0.4-0.1-0.6-0.2c-2.9-1-4.6-3.1-4.8-6.2
		c0-0.4,0-0.8,0-1.2c0-13.5,0-27,0-40.4c0-0.1,0-0.1,0-0.2c0-0.8-0.1-0.7,0.7-0.7C231.9,36.5,237.1,36.5,242.4,36.5
		C242.4,36.5,242.4,36.5,242.4,36.5z"/>
	<path id="XMLID_60_" class="st0" d="M170.8,44.6c-1.4-0.4-2.7-0.8-4-1c-3.1-0.5-6.1-0.6-9.2-0.1c-0.1,0-0.3,0.1-0.4,0.1
		c-2.3,0.5-3.7,1.8-4.3,4.2c-0.6,2.3-0.7,4.6-0.8,6.9c-0.1,3.2-0.1,6.4,0,9.5c0.1,2,0.2,4.1,0.8,6.1c0.1,0.5,0.3,0.9,0.5,1.3
		c0.5,1.1,1.3,1.9,2.3,2.3c1.1,0.5,2.2,0.7,3.3,0.8c4.1,0.4,8.2,0,12.2-1.2c0.2-0.1,0.3-0.2,0.6-0.1c-0.2,0.9-0.4,1.8-0.5,2.6
		c-0.4,1.8-0.8,3.6-1.1,5.3c-0.1,0.5-0.4,0.8-0.8,1c-1.5,0.6-3.2,1-4.8,1.2c-4.7,0.5-9.4,0.3-14-0.9c-2.4-0.6-4.7-1.7-6.5-3.5
		c-1.6-1.5-2.5-3.4-3.2-5.4c-0.8-2.3-1.2-4.6-1.5-7c-0.5-3.9-0.5-7.9-0.3-11.8c0.2-3.7,0.6-7.3,1.8-10.8c0.7-2,1.6-3.8,3.1-5.3
		c1.8-1.7,3.9-2.7,6.2-3.4c2.1-0.6,4.2-0.9,6.4-1.1c3.6-0.3,7.2-0.3,10.8,0.6c1.1,0.3,2.1,0.6,3.1,1c0.3,0.1,0.4,0.3,0.4,0.6
		C170.8,39.2,170.8,41.8,170.8,44.6z"/>
	<path id="XMLID_59_" class="st0" d="M269.6,29.2c0.7-0.5,1.5-0.9,2.2-1.3c4.4-2.9,7.4-6.9,9.2-11.9c0.8-2.2,1.3-4.4,1.6-6.7
		c0.3-1.9,0.8-3.8,1.7-5.5c0.4-0.7,0.8-1.4,1.4-2c1.1-1.2,2.5-1.8,4.1-1.8c3.2,0,6.4,0,9.6,0c0.3,0,0.6,0,0.5,0.5
		c-0.5,3.7-0.8,7.4-1.5,11c-0.6,3.1-1.5,6-3.1,8.8c-2.2,3.7-5.3,6.3-9.4,7.7c-2.3,0.8-4.7,1.3-7.1,1.3
		C275.8,29.2,272.7,29.2,269.6,29.2z"/>
</g>
</svg>
